<?xml version="1.0" encoding="UTF-8" standalone="no"?>
<!-- Created with Inkscape (http://www.inkscape.org/) -->

<svg
   version="1.1"
   id="svg1"
   width="190"
   height="190"
   viewBox="0 0 190 190"
   sodipodi:docname="logo.svg"
   inkscape:version="1.4 (1:1.4+202410161351+e7c3feb100)"
   inkscape:export-filename="logo.png"
   inkscape:export-xdpi="97.010529"
   inkscape:export-ydpi="97.010529"
   xmlns:inkscape="http://www.inkscape.org/namespaces/inkscape"
   xmlns:sodipodi="http://sodipodi.sourceforge.net/DTD/sodipodi-0.dtd"
   xmlns:xlink="http://www.w3.org/1999/xlink"
   xmlns="http://www.w3.org/2000/svg"
   xmlns:svg="http://www.w3.org/2000/svg">
  <defs
     id="defs1">
    <linearGradient
       id="linearGradient14"
       inkscape:collect="always">
      <stop
         style="stop-color:#128481;stop-opacity:1;"
         offset="0"
         id="stop14" />
      <stop
         style="stop-color:#35dfd7;stop-opacity:1;"
         offset="1"
         id="stop15" />
    </linearGradient>
    <linearGradient
       inkscape:collect="always"
       xlink:href="#linearGradient14"
       id="linearGradient15"
       x1="9.0865421"
       y1="57.607414"
       x2="100.46651"
       y2="72.080582"
       gradientUnits="userSpaceOnUse"
       gradientTransform="matrix(1.4110934,0,0,1.2426773,28.761583,-7.1274265)" />
  </defs>
  <sodipodi:namedview
     id="namedview1"
     pagecolor="#ffffff"
     bordercolor="#000000"
     borderopacity="0.25"
     inkscape:showpageshadow="2"
     inkscape:pageopacity="0.0"
     inkscape:pagecheckerboard="0"
     inkscape:deskcolor="#d1d1d1"
     inkscape:zoom="4"
     inkscape:cx="59.375"
     inkscape:cy="130.25"
     inkscape:window-width="1233"
     inkscape:window-height="754"
     inkscape:window-x="2390"
     inkscape:window-y="142"
     inkscape:window-maximized="0"
     inkscape:current-layer="g1"
     inkscape:export-bgcolor="#ffffff00">
    <inkscape:page
       x="0"
       y="0"
       inkscape:label="1"
       id="page1"
       width="190"
       height="190"
       margin="0"
       bleed="0" />
  </sodipodi:namedview>
  <g
     id="g1"
     inkscape:groupmode="layer"
     inkscape:label="1">
    <path
       id="path7"
       d="m 131.06459,68.238019 c -3.33807,2.561574 -6.95178,5.08504 -10.12676,6.794962 -10.50154,-8.180133 -19.379,-18.875443 -26.217717,-29.565787 0.02895,-0.0696 0.110295,-0.106036 0.121266,-0.182258 1.241364,-8.688803 4.770411,-14.512819 9.440381,-15.583175 0.98777,-0.225342 2.54379,-0.141001 3.38896,0.462125 0.34692,0.248536 0.74297,0.636255 0.84812,1.163148 0.007,0.147468 0.016,0.294932 0.025,0.44405 0.0301,0.550093 0.5452,0.980888 1.1714,0.980888 h 0.002 c 0.62543,0 0.81228,-0.113415 0.84031,-0.665166 0.0144,-0.21871 0.0753,-0.689335 0.0438,-0.903073 -0.2478,-4.786796 0.10609,-9.387205 2.96726,-12.664563 1.25889,-1.444822 2.87431,-2.266646 4.3567,-2.163916 0.77234,0.0464 1.59697,0.495413 2.05567,1.118408 0.12113,0.164036 0.28148,0.435768 0.32698,0.748923 -0.0503,0.268418 -0.0955,0.536833 -0.13737,0.805254 -0.078,0.523582 0.30272,1.014024 0.88258,1.139951 0.58874,0.127582 0.77472,-0.02648 0.98055,-0.51858 0.15804,-0.377775 0.37959,-1.029002 0.37503,-1.431628 0.92534,-4.747031 3.60753,-8.804754 6.85454,-11.195666 1.83577,-1.3520323 5.32529,-2.1871123 6.43871,-1.5392653 0.51535,0.299901 0.35939,1.1416083 0.13778,1.7977413 -5.26629,15.594777 -9.4808,39.855305 -4.77568,60.957627 z m 20.2765,-3.383543 c 1.04083,-1.166458 2.72679,-1.817619 4.61485,-1.767914 1.84984,0.058 3.51739,0.828451 4.4589,2.057875 0.36234,0.472216 0.2205,1.11675 -0.31816,1.434878 -0.20149,0.119302 -0.4286,0.175633 -0.65569,0.175633 -0.37555,0 -0.74675,-0.159065 -0.97309,-0.45565 -0.5225,-0.684301 -1.49408,-1.111784 -2.59643,-1.148235 -1.12077,0.01822 -2.10648,0.331378 -2.68331,0.979231 -0.40134,0.45399 -1.13847,0.525237 -1.64704,0.173971 -0.51156,-0.351259 -0.59832,-1.000765 -0.20003,-1.449789 z m -28.97936,11.478998 c 0.5733,0.422678 1.42375,0.921759 2.00661,1.328364 0.36876,0.504547 0.3396,0.867462 0.1562,1.332639 -0.51983,0.350327 -0.71726,0.582914 -1.22073,0.233971 -20.8136,-14.494926 -35.620504,-38.702285 -42.538606,-56.522281 -0.254197,-0.646196 -0.772338,-1.443163 -1.299356,-1.391798 -1.333173,0.04309 -3.62687,2.503578 -4.229715,4.539913 -1.069972,3.608736 -0.290843,8.259664 2.082994,12.600751 0.266028,0.323095 0.464368,0.6843 0.586418,1.07036 0.158052,0.508671 -0.144091,1.038877 -0.701187,1.232739 -0.215255,0.07622 -0.436531,0.04472 -0.651198,0.0065 -3.721698,4.740398 4.265661,13.618086 7.588315,17.379259 -1.906275,-0.840051 -7.278792,-1.70164 -8.899278,0 -5.723784,6.012901 0.780402,22.055374 23.780473,37.270382 -0.818617,0.58373 -1.583027,1.128687 -2.393586,1.707447 1.160516,0.68728 2.228976,1.39014 3.471116,2.06201 0.55185,0.29842 0.64717,0.55049 0.30777,1.03713 -0.22052,0.31647 -0.47592,0.33468 -0.87071,0.33468 -0.21017,0 -0.57576,-0.11689 -0.7677,-0.22177 -1.483688,-0.80128 -2.206233,-1.27972 -3.576905,-2.10436 -18.220033,13.01194 -35.195488,25.10694 -54.4127,36.77501 0.444587,1.52306 1.613915,2.76108 3.021997,3.72489 0.851173,-0.2944 1.716073,-0.59547 2.360661,-1.1527 0.346192,-0.29839 0.85907,-0.37859 1.305923,-0.20578 0.439513,0.17596 0.715141,0.57145 0.687299,0.99726 -0.09639,1.5981 1.008268,2.77598 2.953703,3.15212 3.299132,0.64967 8.383399,-1.31831 10.527895,-6.06897 0.144113,-0.31647 0.55286,-0.71583 0.929157,-0.7909 0.377792,-0.0811 1.158467,0.18173 1.442947,0.41227 0.850223,0.68993 1.666452,0.796 3.148835,0.7014 5.384855,-0.31314 13.086633,-5.25794 20.215466,-12.79108 0.416745,-0.43824 1.157435,-0.49457 1.652092,-0.13073 0.497654,0.36502 0.125999,0.63384 -0.289261,1.07209 -0.583395,0.61735 -1.078326,0.92805 -1.675109,1.51308 30.03141,7.06589 43.386,0.17126 51.32405,-7.22913 8.95534,-8.346 13.34948,-20.48407 11.75325,-32.466801 -0.0742,-0.56633 0.25877,-1.028955 0.90057,-1.095724 0.39612,0.04012 0.60835,0.122917 1.02491,0.211603 0.25859,-0.01635 0.28148,-0.114487 0.44104,-0.08996 8.80614,1.271173 17.16752,-4.015343 18.61059,-11.784232 0.6999,-3.762829 -0.30856,-7.540569 -2.83717,-10.635664 -2.52499,-3.095095 -6.27054,-5.139715 -10.54431,-5.754424 -5.16366,-0.747268 -10.71366,0.472962 -14.39937,3.690669 -0.51895,0.472219 -11.81947,11.038781 -20.63602,15.96989"
       style="fill:url(#linearGradient15);fill-rule:nonzero;stroke:none;stroke-width:0.176563"
       sodipodi:nodetypes="ccccccccsscccccccccccccccccccsccccccccccccccccccccccscccccccccccccccccccccccccc" />
    <path
       id="path8"
       d="M 98.427538,94.780033 C 76.054734,80.125156 69.897715,64.123322 75.525773,58.206088 c 1.593406,-1.674568 6.876135,-0.826685 8.750553,0 -3.267105,-3.701331 -11.120959,-12.437772 -7.461476,-17.102751 -0.330219,-0.05869 -0.346361,-0.340926 -0.514145,-0.619748 -0.142272,-0.236428 -0.37898,-0.494954 -0.677709,-0.68882 -0.241427,-0.231536 -0.567669,-0.245337 -0.774326,-0.318712 -0.769033,-0.267409 -1.719194,-0.215231 -2.36818,0.136966 -1.235053,0.66689 -2.014826,2.132749 -2.089197,3.924713 -0.168344,4.069831 2.609123,7.786761 5.907315,11.497871 0.162603,0.153271 0.337956,0.353121 0.470971,0.534113 0.330961,0.456549 0.254882,0.999303 -0.245166,1.313999 -0.495806,0.316325 -1.189558,0.231537 -1.576756,-0.195666 -0.101939,-0.114132 -0.205355,-0.229906 -0.306554,-0.344045 -0.423466,-0.370132 -0.99437,-0.48101 -1.433743,-0.505466 -1.070224,-0.05542 -2.218515,0.357089 -2.867499,1.038653 -1.658339,1.744682 -2.201124,4.709005 -1.529762,8.345113 2.735049,12.284203 13.043231,21.613505 23.648087,29.073145 1.197514,0.78592 3.09095,2.012807 4.391115,2.782917 0.796985,-0.56955 2.416599,-1.749187 2.304409,-1.822667 z M 44.783056,138.24384 c -1.380283,0.47708 -3.422894,0.31945 -4.837771,-0.0238 -2.014093,-0.49308 -3.359207,-2.25131 -4.131579,-3.96973 18.150143,-11.07319 34.093446,-22.46776 50.95586,-34.51973 l 4.997207,-3.570077 c 0.910579,0.590417 2.655683,1.486387 3.621204,2.067177 -17.915446,12.80496 -34.460161,24.6483 -53.356039,36.13075 0.437156,1.49881 1.684988,2.63137 3.069518,3.57985"
       style="fill:#0f5652;fill-opacity:1;fill-rule:nonzero;stroke:none;stroke-width:0.17368"
       sodipodi:nodetypes="scccsccccccccccccccsscccccccc" />
    <path
       id="path6"
       d="m 171.97205,68.396574 c 0.25413,1.711414 0.32231,3.44813 -0.006,5.199302 -0.0805,0.435534 -0.37188,0.777093 -0.48759,1.199977 3.33874,-0.892754 8.01833,-2.327667 11.22897,-3.341503 z"
       style="fill:#eb501e;fill-opacity:1;fill-rule:nonzero;stroke:none;stroke-width:0.193228"
       sodipodi:nodetypes="ccccc" />
    <path
       id="path11"
       d="m 171.81898,74.478158 c 0.10353,-0.380965 0.36442,-0.688666 0.43659,-1.081028 0.29409,-1.577586 0.23305,-3.142149 0.006,-4.683919 l 9.61162,2.754672 c -2.8746,0.913338 -7.06442,2.206014 -10.05372,3.010275 z m -20.13626,10.169166 c -0.30517,-0.05744 -1.0418,-0.149656 -1.31575,-0.17045 -0.63099,0.0656 -1.084,0.571122 -1.01096,1.127592 1.56939,11.774104 -2.75083,23.700904 -11.55555,31.901584 -7.8045,7.27154 -20.62961,14.59471 -50.155872,7.65186 0.586755,-0.57488 1.198856,-1.05253 1.772491,-1.65916 0.40823,-0.4306 0.343312,-1.07093 -0.145954,-1.4296 -0.48634,-0.35751 -1.214596,-0.30216 -1.624324,0.12845 -7.008912,7.40198 -15.272383,12.58311 -20.566726,12.89082 -1.457466,0.0927 -2.633203,-0.21427 -3.469132,-0.89219 -0.279691,-0.22646 -0.667042,-0.32186 -1.038483,-0.24225 -0.369959,0.0738 -0.674069,0.30332 -0.815766,0.61427 -2.10841,4.66797 -6.520573,6.48228 -9.764213,5.84391 -1.9127,-0.36958 -2.998722,-1.52697 -2.904014,-3.09722 0.02738,-0.41841 -0.243619,-0.80702 -0.675733,-0.97994 -0.439331,-0.1698 -0.94359,-0.0909 -1.283954,0.20222 -0.633742,0.5475 -1.4841,0.84334 -2.320953,1.13264 -1.380142,0.47638 -2.858507,0.70966 -4.27324,0.36694 -2.013888,-0.49231 -3.751043,-1.90529 -4.523337,-3.62111 18.148284,-11.05627 34.089942,-22.43347 50.950578,-34.46708 l 4.99669,-3.56462 c 0.910468,0.58952 1.953779,1.15494 2.919183,1.73485 1.347586,0.81029 2.615806,1.63506 4.074559,2.42238 0.1887,0.10307 0.39605,0.15142 0.60269,0.15142 0.3881,0 0.76601,-0.17306 0.9828,-0.48402 0.33371,-0.47817 0.1639,-1.10268 -0.37866,-1.3959 C 98.93783,98.15254 97.887348,97.46193 96.746382,96.78661 95.446334,96.017683 94.079304,95.261443 92.881929,94.476723 81.99058,87.186377 72.021142,77.634734 69.004405,65.492893 c -0.671306,-3.630565 -0.128548,-6.590372 1.529593,-8.332392 0.648901,-0.680528 1.79708,-1.092427 2.867207,-1.037073 0.439317,0.02442 1.010192,0.135128 1.433616,0.504698 0.100958,0.113974 0.204556,0.229556 0.306484,0.343519 0.38717,0.426552 1.080852,0.511211 1.576602,0.195367 0.500006,-0.314214 0.630795,-0.919852 0.299847,-1.375706 C 76.884726,55.61059 76.736769,55.442901 76.57418,55.289863 73.276339,51.584407 70.417073,47.905 70.585418,43.841371 c 0.0745,-1.789233 0.854044,-3.252856 2.088987,-3.918732 0.648914,-0.351661 1.598978,-0.403758 2.367941,-0.136756 0.206614,0.07327 0.510733,0.20839 0.752131,0.439575 0.133029,0.237696 0.270272,0.473764 0.412516,0.709832 0.16777,0.278399 0.471146,0.416782 0.801323,0.475392 0.211096,0.03745 0.428619,0.06837 0.640219,-0.0065 0.547756,-0.190482 0.844803,-0.711461 0.689426,-1.211275 -0.120006,-0.379334 -0.314999,-0.734253 -0.576576,-1.051722 -2.333899,-4.265508 -3.099907,-8.835463 -2.047929,-12.381369 0.592691,-2.000884 2.847783,-4.418545 4.158565,-4.460875 0.518126,-0.05046 1.02757,0.732626 1.277469,1.367567 6.80175,17.509747 21.35954,41.295651 41.82304,55.538216 0.49502,0.342868 1.22697,0.271069 1.62154,-0.167202 0.39439,-0.440065 0.30912,-1.078588 -0.18942,-1.426993 -0.57305,-0.399524 -1.09542,-0.88208 -1.65909,-1.297398 8.6682,-4.845258 19.84142,-14.945721 20.3516,-15.409717 3.6238,-3.161686 8.65008,-4.674151 13.72688,-3.939897 4.20183,0.604008 7.88443,2.613032 10.36686,5.654239 2.48615,3.041211 3.47765,6.753181 2.78953,10.450496 -1.41881,7.633632 -9.63955,12.828109 -18.29757,11.579063 z M 95.302612,45.687607 c 1.220484,-8.537525 4.690168,-14.260146 9.281598,-15.311869 0.97113,-0.221416 2.18721,0.02604 3.01816,0.618662 0.34108,0.244208 0.73047,0.625172 0.83386,1.142895 0.007,0.144896 0.0159,0.289794 0.0246,0.436319 0.0295,0.540515 0.53605,0.963812 1.15167,0.963812 h 0.002 c 0.61487,0 1.12132,-0.424924 1.14889,-0.967067 0.014,-0.214905 0.002,-0.426551 -0.0288,-0.63657 -0.24362,-4.703455 -0.1467,-9.161073 2.66632,-12.381371 1.2377,-1.419664 2.82595,-2.227181 4.28341,-2.126241 0.75935,0.04557 1.57011,0.486789 2.0211,1.098938 0.1193,0.161178 0.27672,0.428178 0.32151,0.735881 -0.0493,0.263745 -0.0939,0.527489 -0.13513,0.791233 -0.0769,0.51447 0.29763,0.996375 0.86774,1.120106 0.5788,0.12536 1.15613,-0.15141 1.3585,-0.634944 0.15538,-0.371196 0.22975,-0.7603 0.2253,-1.155918 0.90975,-4.664383 3.2958,-8.776852 6.48821,-11.126137 1.80486,-1.328495 5.23571,-2.1490353 6.33041,-1.512464 0.50666,0.294676 0.35332,1.12173 0.13541,1.76644 -5.17725,15.323269 -9.0071,38.996838 -4.38109,59.731762 -3.28194,2.516977 -6.83488,4.996505 -9.9564,6.676659 -10.32497,-8.037713 -19.05311,-18.546817 -25.776787,-29.051037 0.02824,-0.06837 0.108194,-0.1042 0.119306,-0.179089 z M 185.76656,70.448718 172.3277,66.596737 c -0.24421,-0.05666 -0.34079,-0.07518 -0.5229,-0.100922 -0.56604,-1.839702 -1.4379,-3.469426 -2.73832,-5.063294 -2.84501,-3.480784 -7.0609,-5.78123 -11.86911,-6.473152 -5.81969,-0.835194 -11.57351,0.892176 -15.72393,4.516227 -0.008,0.0081 -0.0217,0.0049 -0.0299,0.01127 -0.001,0.0033 -0.076,0.06837 -0.0865,0.07813 -0.22475,0.200252 -0.49945,0.335381 -0.71401,0.547027 -0.0389,0.03909 -0.0223,0.09443 -0.0543,0.136759 -1.33241,1.18034 -4.18797,3.651728 -7.62399,6.380353 -4.13671,-20.080449 -0.45652,-42.747879 4.54516,-57.540399 0.84036,-2.486043 -0.31575,-3.5996323 -1.07953,-4.0424643 -2.33316,-1.34966 -6.93679,0.07488 -9.0785,1.6508493 -2.99004,2.201133 -5.34428,5.720989 -6.63046,9.787875 -0.81372,-0.625174 -1.83685,-1.022421 -2.87942,-1.085914 -2.2436,-0.135128 -4.56252,0.957297 -6.26991,2.914221 -2.62006,3.002137 -3.22773,6.704339 -3.23068,10.67191 -1.31079,-0.670757 -2.93286,-0.893804 -4.3391,-0.574702 -5.15263,1.180339 -8.843014,6.639214 -10.488968,14.857641 -4.394054,-7.199264 -7.848729,-14.24712 -10.183399,-20.257905 -0.953004,-2.455109 -2.633733,-2.769324 -3.544224,-2.74165 -2.792821,0.0928 -5.600668,3.602892 -6.303033,5.978225 -0.987031,3.321237 -0.586013,7.388121 1.045509,11.360579 -1.079536,-0.09769 -2.169057,0.104199 -3.06161,0.584472 -1.892357,1.020791 -3.083818,3.104705 -3.187959,5.574467 -0.155378,3.785228 1.79061,7.111347 4.399767,10.341414 -1.507216,0.123731 -2.978375,0.766813 -3.911229,1.746903 -2.096957,2.201134 -2.822444,5.742156 -2.040713,9.965332 1.453943,7.865143 8.47599,19.088639 23.3727,29.27669 l -4.59049,3.273207 C 68.462868,110.53718 52.36379,122.02766 33.993527,133.17221 c -0.395858,0.24226 -0.58084,0.67661 -0.460973,1.08869 0.797085,2.72828 3.302278,4.97892 6.384799,5.73075 2.40105,0.58691 5.027594,0.23964 7.150618,-0.8707 0.62357,1.6318 2.211816,2.84521 4.428625,3.27387 0.565858,0.11122 1.158351,0.16672 1.76398,0.16411 3.579562,0 7.670783,-1.93332 10.050377,-6.08486 1.106185,0.51137 2.412704,0.73133 3.922155,0.64045 5.045727,-0.29451 12.011342,-4.27999 18.582616,-10.24471 9.152863,2.24428 16.807186,3.17976 23.255426,3.17976 15.84693,0 24.46444,-5.61352 30.40568,-11.14763 8.94048,-8.32928 13.35172,-20.293554 12.1856,-32.226709 0.87347,0.110053 1.74345,0.187064 2.59972,0.187064 7.23164,0 13.55556,-3.913196 16.45053,-9.651444 0.0944,-0.18625 0.11483,-0.239952 0.20177,-0.430106 0.2195,-0.02875 0.31746,-0.05781 0.50979,-0.0904 0.42729,-0.108095 0.93663,-0.229888 1.42681,-0.363387 4.96673,-1.357311 12.60273,-3.844982 12.95791,-3.9622 0.4606,-0.151412 0.76212,-0.540516 0.75287,-0.970322 -0.0117,-0.433064 -0.32924,-0.810774 -0.79541,-0.945901"
       style="fill:#003f3f;fill-opacity:1;fill-rule:nonzero;stroke:none;stroke-width:0.173539"
       sodipodi:nodetypes="ccccccccccccccccccccccccccccsccccccccccccccccsscccccccccccccccccccccsscccccccccccccccccccccccccccccccccccccccccccccccccccccccccsccsccscccccc" />
    <path
       id="path12"
       d="m 156.04197,62.936683 c -1.96336,-0.05558 -3.71659,0.672517 -4.79892,1.976791 -0.41418,0.502072 -0.32401,1.228317 0.20799,1.621081 0.52883,0.392764 1.29539,0.3131 1.71271,-0.19453 0.59987,-0.724391 1.62488,-1.074544 2.79038,-1.094923 1.14632,0.04075 2.15665,0.518746 2.69997,1.283894 0.23536,0.331628 0.62139,0.509484 1.01191,0.509484 0.23614,0 0.47229,-0.063 0.68183,-0.196383 0.56017,-0.355711 0.70767,-1.076397 0.33085,-1.604406 -0.97903,-1.374677 -2.71308,-2.236164 -4.63672,-2.301008"
       style="fill:#07403d;fill-opacity:1;fill-rule:nonzero;stroke:none;stroke-width:0.190388"
       sodipodi:nodetypes="ccccccsccc" />
    <g
       id="g15"
       transform="translate(0.35355339,-1.4142136)">
      <path
         id="path2"
         d="m 13.659839,180.10755 v -19.33897 c 6.020836,-5.34116 15.239016,-9.04018 22.608342,-11.18947 0.880831,-0.20231 1.407128,-0.30397 1.407128,-0.30397 0.09504,-0.0594 0.250721,-0.12982 0.366771,-0.19354 4.393385,-1.18503 7.902936,-1.77628 9.254808,-1.77628 0.12259,0 0.228408,0.006 0.314752,0.0151 0.01472,0.002 0.02372,0.0252 0.03849,0.0282 0.192387,0.13021 0.526672,0.23163 0.627635,0.43271 0.594637,1.18411 0.44488,3.1205 -1.130857,5.05246 -0.122053,0.13921 -0.327168,0.2729 -0.466993,0.41112 -0.0628,0.068 -0.158481,0.15216 -0.224895,0.22042 -1.042205,0.96225 -2.548078,1.82386 -4.649653,2.53115 -0.04149,0.0132 -0.07965,0.0327 -0.115433,0.0563 l -6.132037,4.13181 c -1.260761,0.79033 -1.973214,1.65455 -2.1773,2.64026 -0.331908,1.60375 0.738541,3.33463 1.96144,5.11392 2.390158,3.47685 6.095403,2.36822 6.596844,2.21038 0.388704,-0.0647 1.177491,-0.4963 2.238627,-1.06354 0.973331,-0.35168 1.906731,-0.83057 2.714145,-1.48923 6.698427,-3.95628 17.675117,-11.15736 19.368132,-12.29546 1.413436,-1.39358 3.649684,-1.54149 5.087439,-0.33729 0.299128,0.2498 0.498133,0.5697 0.700768,0.88467 -0.0454,0.0514 -0.07996,0.10944 -0.129602,0.15847 l -25.615289,21.37736 -0.131057,-0.13229 -32.512191,2.85581"
         style="fill:#f4d6be;fill-opacity:1;fill-rule:nonzero;stroke:none;stroke-width:0.0769552"
         sodipodi:nodetypes="cccccsccccccccccccccccccccc" />
      <path
         id="path3"
         d="m 71.918384,156.00667 c 0.04961,-0.049 0.08419,-0.10706 0.129594,-0.15846 0.349916,0.54415 0.603258,1.13933 0.631266,1.80607 0.04209,1.03951 -0.358079,2.05463 -1.066909,2.75662 l -24.040099,19.83671 c -1.040438,0.85944 -2.301118,1.37496 -3.645762,1.49286 l -30.266635,2.66034 v -4.29326 l 32.512194,-2.85581 0.131057,0.13229 25.615294,-21.37736"
         style="fill:#ebc19f;fill-opacity:1;fill-rule:nonzero;stroke:none;stroke-width:0.0769552" />
      <path
         id="path4"
         d="M 12.700282,190.80283 H 1.0532895 v -2.06546 h 7.5455001 v -3.0677 c 0.945782,-0.57536 1.6122164,-1.56977 1.6122164,-2.75563 0,-1.18596 -0.6664344,-2.18007 -1.6122164,-2.75569 v -26.94194 h 4.1014924 v 37.58642"
         style="fill:#3a79c9;fill-opacity:1;fill-rule:nonzero;stroke:none;stroke-width:0.0769552" />
      <path
         id="path5"
         d="m 9.2511406,182.91404 c 0,1.27814 -1.040436,2.31854 -2.319482,2.31854 -1.278783,0 -2.318881,-1.0404 -2.318881,-2.31854 0,-1.27823 1.040098,-2.31859 2.318881,-2.31859 1.279046,0 2.319482,1.04036 2.319482,2.31859"
         style="fill:#eb501e;fill-opacity:1;fill-rule:nonzero;stroke:none;stroke-width:0.0769552" />
      <path
         id="path13"
         d="M 8.6296156,188.74118 H 1.0538097 l -0.011049,-35.66097 7.62,0.0442 -0.022097,27.1213 c -0.497969,-0.3016 -1.1156662,-0.54417 -1.7401172,-0.54417 -1.815114,0 -3.1590085,1.42528 -3.1590085,3.23158 0,1.8065 1.3880887,3.18762 3.2032027,3.18762 0.624451,0 1.2090026,-0.23184 1.7069716,-0.53343 l -0.022097,3.15387"
         style="fill:#133d80;fill-opacity:1;fill-rule:nonzero;stroke:none;stroke-width:0.0770816"
         sodipodi:nodetypes="cccccssscc" />
      <path
         id="path9"
         d="m 72.679244,157.65428 c 0.04209,1.03951 -0.358079,2.05463 -1.066909,2.75662 l -24.040099,19.83671 c -1.040438,0.85944 -2.301118,1.37496 -3.645762,1.49286 l -30.266635,2.66034 v -4.29326 -19.33897 c 6.020836,-5.34116 15.239016,-9.04018 22.608342,-11.18947 0.605716,-0.17676 1.196428,-0.34214 1.773899,-0.49751 4.393385,-1.18503 7.902936,-1.77628 9.254808,-1.77628 0.12259,0 0.228408,0.006 0.314752,0.0151 0.01472,0.002 0.02372,0.0252 0.03849,0.0282 0.460192,0.0848 0.841352,0.66644 0.927003,1.46939 0.104658,0.97695 -0.261185,2.48843 -1.562808,3.97159 -0.122053,0.13921 -0.233255,0.27842 -0.37308,0.41664 -0.06911,0.0682 -0.134675,0.1359 -0.208322,0.20385 -1.042205,0.96225 -2.525981,1.8791 -4.627556,2.58639 -0.04149,0.0132 -0.07965,0.0327 -0.115433,0.0563 l -6.132037,4.13181 c -1.260761,0.79033 -1.973214,1.65455 -2.1773,2.64026 -0.331908,1.60375 0.738541,3.33463 1.96144,5.11392 2.390158,3.47685 6.111028,2.44634 6.612469,2.2885 0.388704,-0.0647 1.208741,-0.44942 2.269877,-1.01666 0.770786,-0.4124 1.6687,-0.92192 2.682895,-1.52048 6.698427,-3.95628 17.659492,-11.25111 19.352507,-12.38921 1.413436,-1.39358 3.649684,-1.54149 5.087439,-0.33729 0.299128,0.2498 0.498133,0.5697 0.700768,0.88467 0.349909,0.54416 0.60325,1.13934 0.631266,1.80608 z M 12.700282,190.80283 H 1.0532895 V 153.21641 H 12.700282 Z M 65.65614,154.56044 c -8.434158,5.62944 -22.366084,14.60229 -23.847171,14.71957 -0.04294,0.002 -0.08503,0.0123 -0.125361,0.0261 -0.138826,0.0508 -3.422972,1.18265 -5.550406,-1.91096 -1.323249,-1.92535 -2.04409,-3.25821 -1.812608,-4.37469 0.148139,-0.7173 0.71961,-1.37826 1.760047,-2.03185 l 6.092098,-4.10357 c 5.862385,-1.99484 7.629971,-5.64329 7.359165,-8.16896 -0.14252,-1.32056 -0.853743,-2.24287 -1.813298,-2.34985 -2.404858,-0.25432 -18.807745,3.08784 -30.17429,10.35105 -1.377424,0.87991 -2.689283,1.80822 -3.884477,2.80472 v -0.12029 -6.66502 c 0,-0.26511 -0.214628,-0.47974 -0.47974,-0.47974 H 0.5732172 c -0.2651359,0 -0.4797688,0.21463 -0.4797688,0.47974 v 38.54563 c 0,0.26543 0.2146329,0.48006 0.4797688,0.48006 H 13.180099 c 0.265112,0 0.47974,-0.21463 0.47974,-0.48006 v -5.91865 l 30.350825,-2.66733 c 0.788177,-0.0694 1.547801,-0.26572 2.265028,-0.56569 0.0758,-0.0316 0.137672,-0.0932 0.212553,-0.12691 0.598174,-0.27319 1.178952,-0.59032 1.695095,-1.01603 l 24.072036,-19.86589 c 0.931543,-0.919 1.435985,-2.19861 1.382501,-3.50685 -0.05441,-1.32695 -0.649657,-2.52968 -1.673782,-3.3882 -1.815679,-1.51925 -4.617933,-1.34579 -6.307955,0.33368"
         style="fill:#040606;fill-opacity:1;fill-rule:nonzero;stroke:none;stroke-width:0.0769552" />
      <path
         id="path10"
         d="m 6.9316586,185.23258 c -1.278783,0 -2.318881,-1.0404 -2.318881,-2.31854 0,-1.27823 1.040098,-2.31859 2.318881,-2.31859 1.279046,0 2.319482,1.04036 2.319482,2.31859 0,1.27814 -1.040436,2.31854 -2.319482,2.31854 z m 0,-5.59668 c -1.807852,0 -3.278423,1.47054 -3.278423,3.27814 0,1.80781 1.470571,3.27838 3.278423,3.27838 0.621954,0 1.171153,-0.22094 1.667131,-0.52275 0.945782,-0.57536 1.6122164,-1.56977 1.6122164,-2.75563 0,-1.18596 -0.6664344,-2.18007 -1.6122164,-2.75569 -0.495978,-0.30182 -1.045177,-0.52245 -1.667131,-0.52245"
         style="fill:#040606;fill-opacity:1;fill-rule:nonzero;stroke:none;stroke-width:0.0769552" />
    </g>
  </g>
</svg>
